<svg xmlns="http://www.w3.org/2000/svg" width="196" height="50" fill="none" style=""><rect id="backgroundrect" width="100%" height="100%" x="0" y="0" fill="none" stroke="none" class="" style=""/>





<g class="currentLayer" style=""><title>Layer 1</title><rect x="41.0004997253418" y="24.81813406944275" width="32" height="1.5433399677276611" rx="0.7716720104217529" fill="#E3B873" id="svg_2" class=""/><rect x="123" y="24.81813406944275" width="32" height="1.5433399677276611" rx="0.7716720104217529" fill="#E3B873" id="svg_3" class=""/><path d="M114.851,20.77163379478455 L90.7306,11.83543379478455 C90.4221,11.721433794784545 90.0793,11.879233794784547 89.9655,12.187933794784549 C89.9653,12.188233794784544 89.9653,12.188433794784544 89.965,12.188733794784554 L87.2949,19.456833794784544 C87.1814,19.76563379478455 87.3396,20.108133794784543 87.6484,20.221633794784545 H87.6489 L90.4448,21.248233794784547 L89.8288,22.926533794784547 C89.7155,23.235333794784545 89.8738,23.577333794784543 90.1825,23.690833794784545 L95.7753,25.744133794784545 L95.3643,26.86303379478455 C94.9908,27.865033794784544 95.3393,28.99313379478454 96.21340000000001,29.609333794784547 V32.649533794784546 H88.1974 C87.8094,31.762533794784545 87.0154,31.118433794784544 86.0671,30.921933794784543 V29.670933794784546 C86.0671,29.34183379478455 85.8006,29.07513379478455 85.4713,29.07513379478455 H83.0694 C82.7404,29.07513379478455 82.4736,29.34183379478455 82.4736,29.670933794784546 V39.202633794784546 C82.4736,39.53193379478455 82.7404,39.79843379478454 83.0694,39.79843379478454 H85.4713 C85.8006,39.79843379478454 86.0671,39.53193379478455 86.0671,39.202633794784546 V37.95183379478455 C87.0154,37.75503379478455 87.8094,37.111233794784546 88.1974,36.22393379478454 H96.21340000000001 V36.81973379478455 C96.21340000000001,37.80683379478455 97.0134,38.607133794784545 98.0005,38.607133794784545 C98.9875,38.607133794784545 99.7878,37.80683379478455 99.7878,36.81973379478455 V30.220133794784545 C100.329,29.95163379478454 100.748,29.48583379478454 100.956,28.918333794784566 L101.367,27.799533794784544 L106.4,29.64643379478455 C106.466,29.670633794784543 106.535,29.682933794784546 106.605,29.682933794784546 C106.855,29.682933794784546 107.079,29.527133794784554 107.165,29.292633794784543 L107.388,28.684333794784543 C109.327,29.049133794784545 111.194,27.77333379478455 111.558,25.834933794784547 C111.693,25.118633794784543 111.606,24.378333794784545 111.308,23.713333794784546 L114.919,21.858933794784548 C115.212,21.70893379478455 115.328,21.34993379478455 115.178,21.057133794784548 C115.11,20.924133794784552 114.994,20.821633794784546 114.854,20.76993379478455 L114.851,20.77163379478455 zM97.4047,30.152133794784547 L97.898,30.33093379478455 C98.1225,30.411433794784543 98.358,30.457633794784556 98.5962,30.467933794784543 V32.649533794784546 H97.4047 V30.152133794784547 zM84.8758,38.607133794784545 H83.6652 V30.266633794784546 H84.8758 V38.607133794784545 zM87.2586,35.03263379478456 C87.2576,35.789733794784546 86.7806,36.46453379478454 86.0671,36.71803379478455 V32.155733794784545 C86.7806,32.40903379478455 87.2576,33.083833794784546 87.2586,33.84113379478455 V35.03263379478456 zM88.4687,33.84113379478455 H98.5962 V35.03263379478456 H88.4687 V33.84113379478455 zM98.0005,37.41553379478455 C97.6714,37.41553379478455 97.4047,37.14873379478455 97.4047,36.81973379478455 V36.22393379478454 H98.5962 V36.81973379478455 C98.5962,37.14873379478455 98.3295,37.41553379478455 98.0005,37.41553379478455 zM100.249,27.389233794784545 L99.8378,28.508033794784545 C99.6108,29.125133794784546 98.9265,29.441633794784543 98.309,29.21513379478455 L97.1884,28.80463379478455 C96.5709,28.577833794784546 96.2539,27.89333379478456 96.4806,27.275533794784543 C96.4806,27.275533794784543 96.4806,27.275533794784543 96.4806,27.27523379478455 L96.8919,26.157233794784545 L99.9116,27.265733794784545 L100.249,27.389233794784545 zM106.252,28.324533794784543 L91.1523,22.779733794784548 L91.5636,21.660933794784548 L100.511,24.946633794784546 C100.723,25.023633794784544 100.96,24.975433794784543 101.125,24.82133379478455 L102.797,23.247533794784545 L107.484,24.969133794784547 L106.252,28.324533794784543 zM110.28,25.996233794784544 C109.903,27.01403379478456 108.887,27.650033794784555 107.807,27.545233794784544 L108.728,25.037633794784547 L110.231,24.263333794784543 C110.466,24.813833794784543 110.484,25.43343379478455 110.28,25.996233794784544 zM108.269,23.936333794784545 C108.238,23.939033794784557 108.206,23.94453379478456 108.176,23.952833794784546 L102.864,22.00243379478455 C102.652,21.924733794784565 102.415,21.972933794784538 102.25,22.12753379478454 L100.577,23.701533794784545 L88.6187,19.310333794784547 L90.8773,13.160533794784548 L113.168,21.418733794784544 L108.269,23.936333794784545 z" fill="#E3B873" id="svg_4" class=""/><path d="M94.1292,19.709533794784548 L93.6038,21.129433794784546 M96.419,20.549533794784544 L95.8935,21.96943379478455 M98.641,21.376033794784547 L98.1155,22.795933794784546 " stroke="#E3B873" stroke-linecap="round" id="svg_5" class=""/></g></svg>